# xmcd CD database file
#
# Track frame offsets:
#	150
#	25616
#	40574
#	55492
#	67562
#	81790
#	94858
#	108187
#	121511
#	138198
#	153118
#	166511
#	180803
#	194018
#	207473
#	222918
#	236804
#	252184
#	266834
#	278524
#
# Disc length: 3910 seconds
#
# Revision: 1
# Processed by: cddbd v1.5.1PL2 Copyright (c) Steve Scherf et al.
# Submitted via: CDex 1.51
#
DISCID=fb0f4414
DTITLE=Duke Ellington - Duke Ellington ...At His Best [CD2]
DYEAR=2002
DGENRE=Jazz
TTITLE0=Tiger Rag
TTITLE1=I Can't Give You Anything But Love
TTITLE2=Live And Love Tonight
TTITLE3=Johnny Come Lately
TTITLE4=Black Beauty
TTITLE5=Rockin' In Rhythm
TTITLE6=Conga Brava
TTITLE7=Ring Dem Bells
TTITLE8=Sophisticated Lady
TTITLE9=In A Sentimental Mood
TTITLE10=Prelude To A Kiss
TTITLE11=Cotton Tail
TTITLE12=Jump For Joy
TTITLE13=Moon Mist
TTITLE14=Warm Valley
TTITLE15=Old Man Blues
TTITLE16=Black And Tan Fantasy
TTITLE17=I'm Beginning To See The Light
TTITLE18=Jubilee Stomp
TTITLE19=Hot And Bothered
EXTD=YEAR: 2002
EXTT0=
EXTT1=
EXTT2=
EXTT3=
EXTT4=
EXTT5=
EXTT6=
EXTT7=
EXTT8=
EXTT9=
EXTT10=
EXTT11=
EXTT12=
EXTT13=
EXTT14=
EXTT15=
EXTT16=
EXTT17=
EXTT18=
EXTT19=
PLAYORDER=
